HIERARCHY
ROOT Hips
{
	OFFSET 0.000000 100.481300 0.000000
	CHANNELS 6 Xposition Yposition Zposition Xrotation Yrotation Zrotation
	JOINT Spine
	{
		OFFSET -0.279200 12.230698 -2.892100
		CHANNELS 3 Xrotation Yrotation Zrotation
		JOINT Spine1
		{
			OFFSET -0.325700 14.269203 -3.374200
			CHANNELS 3 Xrotation Yrotation Zrotation
			JOINT Spine2
			{
				OFFSET -0.372300 16.307602 -0.352600
				CHANNELS 3 Xrotation Yrotation Zrotation
				JOINT Neck
				{
					OFFSET -0.418800 17.814194 8.416900
					CHANNELS 3 Xrotation Yrotation Zrotation
					JOINT Head
					{
						OFFSET 0.000000 7.031097 3.806800
						CHANNELS 3 Xrotation Yrotation Zrotation
						JOINT HeadTop_End
						{
							OFFSET 0.000000 24.646606 12.978600
							CHANNELS 3 Xrotation Yrotation Zrotation
							End Site
							{
								OFFSET 0.000000 27.854965 0.000000
							}
						}
					}
				}
				JOINT LeftShoulder
				{
					OFFSET 16.952999 14.495407 -7.737500
					CHANNELS 3 Xrotation Yrotation Zrotation
					JOINT LeftArm
					{
						OFFSET 9.308998 -2.777710 0.208600
						CHANNELS 3 Xrotation Yrotation Zrotation
						JOINT LeftForeArm
						{
							OFFSET 29.972298 0.000000 0.000000
							CHANNELS 3 Xrotation Yrotation Zrotation
							JOINT LeftHand
							{
								OFFSET 26.026505 0.000000 0.000000
								CHANNELS 3 Xrotation Yrotation Zrotation
								JOINT LeftHandThumb1
								{
									OFFSET 12.240501 -7.147949 9.207150
									CHANNELS 3 Xrotation Yrotation Zrotation
									JOINT LeftHandThumb2
									{
										OFFSET 4.138618 -2.389435 2.389433
										CHANNELS 3 Xrotation Yrotation Zrotation
										JOINT LeftHandThumb3
										{
											OFFSET 2.726913 -1.574387 1.574386
											CHANNELS 3 Xrotation Yrotation Zrotation
											JOINT LeftHandThumb4
											{
												OFFSET 3.941010 -2.275345 2.275342
												CHANNELS 3 Xrotation Yrotation Zrotation
												End Site
												{
													OFFSET -0.005798 5.087799 0.009903
												}
											}
										}
									}
								}
								JOINT LeftHandIndex1
								{
									OFFSET 24.424698 -1.985611 5.953459
									CHANNELS 3 Xrotation Yrotation Zrotation
									JOINT LeftHandIndex2
									{
										OFFSET 6.426697 0.000000 0.000000
										CHANNELS 3 Xrotation Yrotation Zrotation
										JOINT LeftHandIndex3
										{
											OFFSET 5.337898 0.000000 0.000000
											CHANNELS 3 Xrotation Yrotation Zrotation
											JOINT LeftHandIndex4
											{
												OFFSET 4.409401 0.000000 0.000000
												CHANNELS 3 Xrotation Yrotation Zrotation
												End Site
												{
													OFFSET 0.000000 4.409363 0.014373
												}
											}
										}
									}
								}
								JOINT LeftHandMiddle1
								{
									OFFSET 23.810104 0.000000 0.000000
									CHANNELS 3 Xrotation Yrotation Zrotation
									JOINT LeftHandMiddle2
									{
										OFFSET 7.176498 0.000000 0.000000
										CHANNELS 3 Xrotation Yrotation Zrotation
										JOINT LeftHandMiddle3
										{
											OFFSET 6.774902 0.000000 0.000000
											CHANNELS 3 Xrotation Yrotation Zrotation
											JOINT LeftHandMiddle4
											{
												OFFSET 5.403328 0.000000 0.000000
												CHANNELS 3 Xrotation Yrotation Zrotation
												End Site
												{
													OFFSET -0.027702 5.403244 0.017414
												}
											}
										}
									}
								}
								JOINT LeftHandRing1
								{
									OFFSET 22.908401 -0.839279 -6.020567
									CHANNELS 3 Xrotation Yrotation Zrotation
									JOINT LeftHandRing2
									{
										OFFSET 6.337502 0.000000 0.000000
										CHANNELS 3 Xrotation Yrotation Zrotation
										JOINT LeftHandRing3
										{
											OFFSET 5.779297 0.000000 0.000000
											CHANNELS 3 Xrotation Yrotation Zrotation
											JOINT LeftHandRing4
											{
												OFFSET 4.965698 0.000000 0.000000
												CHANNELS 3 Xrotation Yrotation Zrotation
												End Site
												{
													OFFSET 0.000000 4.965668 0.016186
												}
											}
										}
									}
								}
								JOINT LeftHandPinky1
								{
									OFFSET 20.037003 -1.530319 -10.950146
									CHANNELS 3 Xrotation Yrotation Zrotation
									JOINT LeftHandPinky2
									{
										OFFSET 5.254700 0.000000 0.000000
										CHANNELS 3 Xrotation Yrotation Zrotation
										JOINT LeftHandPinky3
										{
											OFFSET 4.810204 0.000000 0.000000
											CHANNELS 3 Xrotation Yrotation Zrotation
											JOINT LeftHandPinky4
											{
												OFFSET 3.647202 0.000000 0.000000
												CHANNELS 3 Xrotation Yrotation Zrotation
												End Site
												{
													OFFSET 0.000000 3.647186 0.011889
												}
											}
										}
									}
								}
							}
						}
					}
				}
				JOINT RightShoulder
				{
					OFFSET -15.141001 14.495407 -7.737500
					CHANNELS 3 Xrotation Yrotation Zrotation
					JOINT RightArm
					{
						OFFSET -9.308998 -2.777710 0.208500
						CHANNELS 3 Xrotation Yrotation Zrotation
						JOINT RightForeArm
						{
							OFFSET -29.972300 0.000000 0.000000
							CHANNELS 3 Xrotation Yrotation Zrotation
							JOINT RightHand
							{
								OFFSET -26.026505 0.000000 0.000000
								CHANNELS 3 Xrotation Yrotation Zrotation
								JOINT RightHandThumb1
								{
									OFFSET -12.240601 -7.148026 9.207092
									CHANNELS 3 Xrotation Yrotation Zrotation
									JOINT RightHandThumb2
									{
										OFFSET -4.138618 -2.389435 2.389433
										CHANNELS 3 Xrotation Yrotation Zrotation
										JOINT RightHandThumb3
										{
											OFFSET -2.726974 -1.574417 1.574421
											CHANNELS 3 Xrotation Yrotation Zrotation
											JOINT RightHandThumb4
											{
												OFFSET -3.941010 -2.275345 2.275343
												CHANNELS 3 Xrotation Yrotation Zrotation
												End Site
												{
													OFFSET 0.005814 5.087799 0.009927
												}
											}
										}
									}
								}
								JOINT RightHandIndex1
								{
									OFFSET -24.424698 -1.985657 5.953444
									CHANNELS 3 Xrotation Yrotation Zrotation
									JOINT RightHandIndex2
									{
										OFFSET -6.426697 0.000000 0.000000
										CHANNELS 3 Xrotation Yrotation Zrotation
										JOINT RightHandIndex3
										{
											OFFSET -5.337898 0.000000 0.000000
											CHANNELS 3 Xrotation Yrotation Zrotation
											JOINT RightHandIndex4
											{
												OFFSET -4.409401 0.000000 0.000000
												CHANNELS 3 Xrotation Yrotation Zrotation
												End Site
												{
													OFFSET 0.000000 4.409363 0.014408
												}
											}
										}
									}
								}
								JOINT RightHandMiddle1
								{
									OFFSET -23.810097 0.000000 0.000000
									CHANNELS 3 Xrotation Yrotation Zrotation
									JOINT RightHandMiddle2
									{
										OFFSET -7.176498 0.000000 0.000000
										CHANNELS 3 Xrotation Yrotation Zrotation
										JOINT RightHandMiddle3
										{
											OFFSET -6.774902 0.000000 0.000000
											CHANNELS 3 Xrotation Yrotation Zrotation
											JOINT RightHandMiddle4
											{
												OFFSET -5.403328 0.000000 0.000000
												CHANNELS 3 Xrotation Yrotation Zrotation
												End Site
												{
													OFFSET 0.027702 5.403244 0.017457
												}
											}
										}
									}
								}
								JOINT RightHandRing1
								{
									OFFSET -22.908302 -0.839325 -6.020576
									CHANNELS 3 Xrotation Yrotation Zrotation
									JOINT RightHandRing2
									{
										OFFSET -6.337502 0.000000 0.000000
										CHANNELS 3 Xrotation Yrotation Zrotation
										JOINT RightHandRing3
										{
											OFFSET -5.779297 0.000000 0.000000
											CHANNELS 3 Xrotation Yrotation Zrotation
											JOINT RightHandRing4
											{
												OFFSET -4.965698 0.000000 0.000000
												CHANNELS 3 Xrotation Yrotation Zrotation
												End Site
												{
													OFFSET 0.000000 4.965668 0.016226
												}
											}
										}
									}
								}
								JOINT RightHandPinky1
								{
									OFFSET -20.037003 -1.530334 -10.950259
									CHANNELS 3 Xrotation Yrotation Zrotation
									JOINT RightHandPinky2
									{
										OFFSET -5.254700 0.000000 0.000000
										CHANNELS 3 Xrotation Yrotation Zrotation
										JOINT RightHandPinky3
										{
											OFFSET -4.810204 0.000000 0.000000
											CHANNELS 3 Xrotation Yrotation Zrotation
											JOINT RightHandPinky4
											{
												OFFSET -3.647202 0.000000 0.000000
												CHANNELS 3 Xrotation Yrotation Zrotation
												End Site
												{
													OFFSET 0.000000 3.647186 0.011917
												}
											}
										}
									}
								}
							}
						}
					}
				}
			}
		}
	}
	JOINT LeftUpLeg
	{
		OFFSET 15.427100 -6.655098 0.678600
		CHANNELS 3 Xrotation Yrotation Zrotation
		JOINT LeftLeg
		{
			OFFSET 4.081073 -39.591068 13.024000
			CHANNELS 3 Xrotation Yrotation Zrotation
			JOINT LeftFoot
			{
				OFFSET -4.081074 -37.707932 -15.979700
				CHANNELS 3 Xrotation Yrotation Zrotation
				JOINT LeftToeBase
				{
					OFFSET 5.346399 -15.068900 20.645000
					CHANNELS 3 Xrotation Yrotation Zrotation
					JOINT LeftToe_End
					{
						OFFSET 2.754700 0.931300 11.300900
						CHANNELS 3 Xrotation Yrotation Zrotation
						End Site
						{
							OFFSET 0.000000 11.669021 0.000000
						}
					}
				}
			}
		}
	}
	JOINT RightUpLeg
	{
		OFFSET -15.569500 -6.655098 0.678600
		CHANNELS 3 Xrotation Yrotation Zrotation
		JOINT RightLeg
		{
			OFFSET -4.081825 -39.591045 13.023800
			CHANNELS 3 Xrotation Yrotation Zrotation
			JOINT RightFoot
			{
				OFFSET 4.081824 -37.707954 -15.979600
				CHANNELS 3 Xrotation Yrotation Zrotation
				JOINT RightToeBase
				{
					OFFSET -5.346400 -15.068900 20.645000
					CHANNELS 3 Xrotation Yrotation Zrotation
					JOINT RightToe_End
					{
						OFFSET -2.754700 0.931300 11.300900
						CHANNELS 3 Xrotation Yrotation Zrotation
						End Site
						{
							OFFSET 0.000000 11.669021 0.000000
						}
					}
				}
			}
		}
	}
}
MOTION
Frames: 4
Frame Time: 0.033333
-5.911764 93.643387 -3.430288 -14.234241 62.962992 15.887906 5.809333 0.981996 0.211709 1.480743 1.649900 -0.501492 1.482267 1.585443 -0.725588 2.496540 4.834302 1.646938 1.428538 0.476106 1.590318 -0.000000 -0.000003 -0.000000 0.092961 -13.795363 -20.208986 6.952465 2.920254 -40.773146 -0.002314 -94.178555 -0.002337 -121.250966 -5.572527 18.823487 -12.800140 -17.470109 4.121639 1.012368 0.758806 -1.430642 -7.340031 -0.433355 13.194488 0.000000 0.000001 0.000001 -3.532546 4.254366 -63.954572 3.402076 5.315512 -65.218942 1.034632 3.326121 -34.549846 0.000002 -0.000001 0.000002 2.434395 7.296058 -69.364095 3.297860 5.266360 -64.088635 0.787107 2.934916 -30.019569 -0.000001 0.000002 -0.000001 4.717036 8.075518 -77.582275 2.056292 4.456879 -49.517659 1.539989 3.959693 -42.490624 -0.000000 -0.000000 -0.000001 6.410323 8.363719 -80.414563 1.722714 4.149903 -45.074379 0.636274 2.657137 -26.928226 0.000002 -0.000001 -0.000004 -0.243777 17.685311 12.786672 12.865125 20.772349 37.421558 -0.000172 100.137779 0.000184 -35.495161 -19.536414 25.117305 20.470531 7.475581 18.843587 4.151744 -12.160908 -33.847986 -6.270015 -41.955868 -36.496108 -0.000000 -0.000002 0.000000 -0.887101 1.427988 12.684528 1.917411 -3.767446 53.934326 3.057989 -4.374569 69.896796 -0.000001 0.000000 -0.000000 0.770874 -5.199589 54.618820 5.563883 -4.568253 101.238587 4.771460 -4.655766 91.407889 0.000001 0.000000 -0.000000 6.934450 -8.544281 63.908741 2.909304 -4.317399 67.934728 1.862832 -3.727208 53.099444 0.000002 -0.000000 0.000001 8.373394 -8.171763 73.989923 2.173671 -3.940975 57.745390 1.042002 -2.937892 39.049875 0.000001 -0.000000 0.000001 -13.506231 10.801445 6.203624 21.638038 7.218678 3.873299 3.868449 0.612121 -8.837224 -3.776391 0.010124 -0.490117 0.000000 -0.000000 0.000000 3.412106 -13.249451 -5.266484 20.811877 2.155317 -2.889609 -18.309084 -5.918851 3.587812 -2.339416 0.000027 -0.000000 -0.000000 -0.000002 -0.000000 
-6.193385 93.911873 -3.861993 -15.810682 65.422940 17.898080 5.754878 0.977170 -0.316124 1.480742 1.422292 -0.515115 1.482267 1.372930 -0.692833 2.492501 4.752144 1.569053 1.608117 -1.199729 1.784348 0.000001 0.000001 0.000000 0.113019 -13.406105 -19.946920 6.949877 2.871997 -40.890959 -0.000419 -94.205849 -0.000389 -121.326085 -5.667697 18.640017 -12.800140 -17.470114 4.121638 1.012368 0.758807 -1.430648 -7.340032 -0.433355 13.194486 -0.000000 -0.000001 -0.000001 -3.532546 4.254365 -63.954565 3.402075 5.315514 -65.218942 1.034634 3.326123 -34.549846 -0.000002 0.000001 -0.000002 2.434397 7.296058 -69.364089 3.297858 5.266362 -64.088642 0.787102 2.934913 -30.019566 0.000002 0.000000 -0.000001 4.717035 8.075518 -77.582275 2.056284 4.456882 -49.517663 1.539982 3.959693 -42.490627 -0.000000 -0.000002 0.000003 6.410325 8.363720 -80.414563 1.722711 4.149903 -45.074375 0.636275 2.657137 -26.928227 0.000000 -0.000000 -0.000000 -0.211234 18.022477 12.620745 12.586631 21.097358 37.519329 -0.000196 99.916802 0.000207 -35.503194 -19.428770 25.130168 20.470526 7.475580 18.843589 4.151744 -12.160908 -33.847983 -6.270005 -41.955878 -36.496108 0.000003 0.000003 -0.000000 -0.887099 1.427986 12.684534 1.917410 -3.767445 53.934326 3.057989 -4.374570 69.896802 0.000000 -0.000001 -0.000001 0.770877 -5.199589 54.618817 5.563885 -4.568252 101.238587 4.771461 -4.655766 91.407889 0.000001 0.000000 0.000001 6.934451 -8.544281 63.908741 2.909306 -4.317397 67.934728 1.862831 -3.727208 53.099444 0.000000 0.000003 -0.000002 8.373394 -8.171765 73.989916 2.173671 -3.940978 57.745390 1.042001 -2.937891 39.049872 -0.000000 -0.000002 0.000002 -11.617657 10.773030 6.642837 18.891019 7.162591 3.361773 3.838183 2.990656 -9.422314 -2.193180 0.003145 -0.448364 0.000000 0.000000 -0.000000 3.910614 -14.491945 -5.875731 20.129068 1.017305 -2.846467 -18.081012 -6.208780 4.296742 -2.339417 0.000007 -0.000001 0.000000 0.000002 0.000000 
-6.431828 94.091515 -4.223814 -17.624192 67.719830 20.106851 5.699903 1.028032 -0.821849 1.480742 1.215317 -0.529062 1.482267 1.180397 -0.661324 2.486534 4.674657 1.500181 1.797696 -2.886023 1.991191 -0.000001 0.000000 -0.000000 0.131609 -13.055307 -19.674756 6.923295 2.704617 -41.042088 0.002358 -94.006291 0.002420 -121.472469 -5.648798 18.339951 -12.800141 -17.470111 4.121637 1.012369 0.758805 -1.430650 -7.340031 -0.433355 13.194487 0.000001 0.000001 -0.000001 -3.532545 4.254366 -63.954572 3.402073 5.315514 -65.218942 1.034631 3.326122 -34.549843 0.000001 0.000002 -0.000004 2.434395 7.296054 -69.364082 3.297855 5.266362 -64.088642 0.787100 2.934915 -30.019566 -0.000000 -0.000000 -0.000002 4.717036 8.075519 -77.582275 2.056288 4.456879 -49.517666 1.539983 3.959693 -42.490631 0.000001 -0.000000 -0.000001 6.410324 8.363717 -80.414563 1.722710 4.149905 -45.074382 0.636276 2.657138 -26.928234 0.000000 -0.000002 -0.000000 -0.165492 18.322093 12.457528 12.335095 21.398680 37.611762 -0.000312 99.699923 0.000309 -35.479445 -19.378809 25.060029 20.470526 7.475580 18.843587 4.151744 -12.160912 -33.847983 -6.270006 -41.955875 -36.496098 0.000004 -0.000001 -0.000002 -0.887100 1.427988 12.684527 1.917409 -3.767445 53.934326 3.057988 -4.374567 69.896796 -0.000001 0.000000 -0.000001 0.770877 -5.199587 54.618817 5.563882 -4.568254 101.238587 4.771460 -4.655766 91.407889 -0.000000 -0.000001 -0.000002 6.934449 -8.544279 63.908741 2.909305 -4.317399 67.934728 1.862832 -3.727208 53.099444 0.000001 0.000001 -0.000001 8.373394 -8.171762 73.989916 2.173668 -3.940975 57.745390 1.042003 -2.937890 39.049875 0.000000 -0.000002 0.000003 -10.100765 10.990782 7.037108 16.331407 6.949053 2.762406 3.930576 4.533618 -9.626166 -0.990215 0.000378 -0.222355 -0.000000 0.000000 -0.000000 4.365187 -15.598108 -6.428425 19.644486 -0.196044 -2.812115 -17.977118 -6.427463 5.020442 -2.339418 -0.000024 -0.000002 -0.000000 -0.000000 0.000000 
-6.614415 94.199463 -4.523441 -19.684740 69.821663 22.501271 5.645023 1.100658 -1.272845 1.480741 1.029222 -0.543158 1.482268 1.008000 -0.633584 2.478147 4.611906 1.440565 1.998475 -4.523337 2.194164 0.000000 0.000002 0.000000 0.143554 -12.853192 -19.372134 6.881794 2.377206 -41.208813 0.000474 -93.510754 0.000548 -121.723861 -5.506938 17.901186 -12.800140 -17.470116 4.121639 1.012369 0.758806 -1.430649 -7.340032 -0.433355 13.194485 0.000001 -0.000000 -0.000003 -3.532545 4.254365 -63.954572 3.402073 5.315514 -65.218942 1.034633 3.326122 -34.549839 0.000000 0.000000 -0.000002 2.434395 7.296053 -69.364089 3.297857 5.266362 -64.088642 0.787106 2.934914 -30.019566 0.000000 -0.000002 -0.000001 4.717035 8.075515 -77.582275 2.056286 4.456879 -49.517659 1.539986 3.959693 -42.490624 0.000000 0.000003 -0.000001 6.410325 8.363717 -80.414563 1.722711 4.149904 -45.074375 0.636276 2.657137 -26.928233 0.000001 -0.000000 0.000002 -0.074476 18.482292 12.308420 12.109255 21.679755 37.698871 -0.000301 99.483338 0.000319 -35.424476 -19.379784 24.879662 20.470526 7.475579 18.843590 4.151745 -12.160911 -33.847989 -6.270006 -41.955875 -36.496105 0.000001 0.000002 -0.000001 -0.887099 1.427986 12.684532 1.917412 -3.767445 53.934329 3.057987 -4.374568 69.896796 -0.000000 0.000000 -0.000000 0.770877 -5.199589 54.618817 5.563885 -4.568254 101.238587 4.771460 -4.655765 91.407882 0.000000 -0.000000 -0.000000 6.934449 -8.544281 63.908741 2.909305 -4.317400 67.934728 1.862832 -3.727209 53.099441 -0.000001 0.000001 0.000001 8.373394 -8.171765 73.989923 2.173670 -3.940977 57.745390 1.042001 -2.937892 39.049875 0.000000 -0.000000 -0.000004 -9.229400 10.945255 7.293050 14.473408 6.870126 2.009098 4.272638 5.004338 -9.463269 -0.299781 0.000006 -0.045046 -0.000000 0.000000 0.000000 4.823004 -16.478888 -6.900528 19.301891 -1.541536 -2.782295 -17.963963 -6.576075 5.785243 -2.339414 -0.000002 -0.000002 0.000000 -0.000000 0.000000 
